<svg xmlns="http://www.w3.org/2000/svg" width="100" height="70" viewBox="0 0 100 70"><g fill="#777"><path d="M39.214 35.969h3.573v3h-3.573zM54 31.334h18v3h-18zM59 25.334h6v3h-6zM82 62.334v-5.273c1.317-.372 2.374-1.123 3.052-2.219 1.101-1.779 1.026-4.213-.204-6.678l-3.494-7c-.254-.509-.772-.83-1.341-.83h-.001c-.567 0-1.087.32-1.341.828l-3.506 7c-1.235 2.465-1.313 4.899-.215 6.68.841 1.361 2.261 2.197 4.05 2.424v5.068h-5.764v-12.364c0-.398-.158-.78-.44-1.062l-8.24-8.228c-.281-.28-.662-.438-1.06-.438h-16.401v-5.669c.251-.106.476-.272.64-.5.282-.394.356-.899.2-1.357l-5.509-16.163c-.207-.607-.778-1.016-1.42-1.016-.642 0-1.212.408-1.42 1.016l-5.513 16.163c-.156.458-.082.963.2 1.357.153.215.361.376.594.483v6.931l-2.177-2.176c-.586-.586-1.535-.586-2.121 0l-13.894 13.884 2.121 2.121 1.502-1.501v8.519h-3.298v3h69v-3h-4zm-40.995-40.65l3.414 10.015h-6.829l3.415-10.015zm-3.138 13.015h6.228v6.292l-4.861 4.858-1.367-1.366v-9.784zm2.452 27.635h-17.02v-11.517l8.331-8.325 8.689 8.684v11.158zm29.917 0h-26.917v-8.16l1.404 1.402 2.121-2.121-5.488-5.484 4.731-4.729h16.788l7.361 7.35v11.742zm7.267-9.068c-.54-.875-.415-2.245.344-3.76l2.163-4.317 2.154 4.315c.755 1.514.878 2.884.337 3.76-.548.885-1.662 1.07-2.501 1.07-.838 0-1.952-.186-2.497-1.068zM61.229 54.924h3.115v3.639h3v-5.139c0-.828-.672-1.5-1.5-1.5h-4.615v3zM30.721 54.924h3.114v3.639h3v-5.139c0-.828-.671-1.5-1.5-1.5h-4.614v3z"/></g></svg>